<svg width="619" height="514" viewBox="0 0 619 514" fill="none" xmlns="http://www.w3.org/2000/svg">
<path d="M176.477 209.748L431.362 209.748C437.621 209.748 442.695 204.674 442.695 198.415V11.8004C442.695 5.54121 437.621 0.467163 431.362 0.467163L176.477 0.467163C170.218 0.467163 165.144 5.54121 165.144 11.8004V198.415C165.144 204.674 170.218 209.748 176.477 209.748Z" fill="white"/>
<path d="M431.362 210.215H176.478C173.349 210.212 170.349 208.967 168.137 206.755C165.925 204.543 164.681 201.543 164.677 198.415V11.8004C164.681 8.67177 165.925 5.67231 168.137 3.46006C170.349 1.24781 173.349 0.00345145 176.478 0L431.362 0C434.49 0.00345118 437.49 1.24779 439.702 3.46002C441.914 5.67225 443.159 8.67171 443.163 11.8004V198.415C443.159 201.543 441.914 204.543 439.702 206.755C437.49 208.967 434.49 210.212 431.362 210.215ZM176.478 0.934323C173.597 0.937624 170.835 2.08349 168.798 4.12056C166.761 6.15762 165.615 8.91952 165.611 11.8004V198.415C165.615 201.296 166.761 204.058 168.798 206.095C170.835 208.132 173.597 209.278 176.478 209.281H431.362C434.243 209.278 437.004 208.132 439.042 206.095C441.079 204.058 442.225 201.296 442.228 198.415V11.8004C442.225 8.91947 441.079 6.15757 439.042 4.12052C437.004 2.08348 434.243 0.937623 431.362 0.934323H176.478Z" fill="#292A2E"/>
<path d="M198.173 18.0477L179.956 19.7752C178.075 19.9536 176.694 21.6235 176.873 23.5051L178.6 41.722C178.778 43.6035 180.448 44.9841 182.33 44.8057L200.547 43.0783C202.428 42.8998 203.809 41.2299 203.631 39.3484L201.903 21.1315C201.725 19.25 200.055 17.8693 198.173 18.0477Z" fill="#292A2E"/>
<path d="M250.05 57.5654L231.856 55.6079C229.977 55.4057 228.29 56.7651 228.088 58.6443L226.13 76.8379C225.928 78.717 227.288 80.4042 229.167 80.6064L247.36 82.5639C249.239 82.7661 250.927 81.4067 251.129 79.5276L253.086 61.3339C253.289 59.4548 251.929 57.7676 250.05 57.5654Z" fill="white"/>
<path d="M247.733 83.1512C247.588 83.1511 247.444 83.1433 247.3 83.1279L229.106 81.1703C228.055 81.056 227.092 80.5292 226.428 79.7056C225.765 78.882 225.455 77.8288 225.567 76.7771L227.525 58.5844C227.58 58.0635 227.739 57.5587 227.99 57.0988C228.241 56.639 228.58 56.2331 228.988 55.9044C229.396 55.5757 229.865 55.3305 230.367 55.183C230.87 55.0354 231.397 54.9883 231.918 55.0444L250.111 57.0021C251.163 57.1155 252.127 57.642 252.79 58.4659C253.454 59.2897 253.763 60.3434 253.65 61.3953L251.693 79.588C251.588 80.5653 251.126 81.4694 250.395 82.127C249.664 82.7846 248.717 83.1493 247.734 83.1512H247.733ZM247.42 82.0003C248.173 82.0813 248.927 81.86 249.517 81.3849C250.107 80.9099 250.483 80.2201 250.565 79.4672L252.523 61.274C252.604 60.521 252.382 59.7667 251.907 59.177C251.432 58.5873 250.742 58.2104 249.989 58.1291L231.795 56.1721C231.422 56.1319 231.045 56.1657 230.686 56.2713C230.326 56.3769 229.99 56.5524 229.698 56.7876C229.406 57.0229 229.164 57.3134 228.984 57.6425C228.804 57.9716 228.691 58.3329 228.651 58.7057L226.693 76.8984C226.613 77.6513 226.835 78.4051 227.31 78.9947C227.785 79.5842 228.475 79.9613 229.228 80.0432L247.42 82.0003Z" fill="#292A2E"/>
<path d="M330.78 86.4111C330.687 86.4112 330.595 86.3884 330.513 86.3447C330.431 86.301 330.361 86.2378 330.309 86.1606C318.765 68.9901 301.253 65.864 288.591 66.2608C280.029 66.5868 271.575 68.2918 263.555 71.31C263.417 71.3662 263.262 71.3653 263.124 71.3076C262.986 71.2499 262.876 71.1401 262.819 71.002C262.762 70.8639 262.761 70.7088 262.818 70.5704C262.874 70.4319 262.983 70.3214 263.121 70.2629C271.268 67.1947 279.856 65.4606 288.555 65.1275C301.499 64.7205 319.416 67.9271 331.25 85.5273C331.308 85.6126 331.341 85.7118 331.346 85.8144C331.351 85.9171 331.328 86.0192 331.28 86.1099C331.232 86.2007 331.16 86.2766 331.072 86.3295C330.984 86.3825 330.883 86.4105 330.78 86.4106V86.4111Z" fill="#292A2E"/>
<path d="M330.99 86.6429C330.938 86.6427 330.886 86.6355 330.835 86.6214L319.218 83.3405C319.074 83.2997 318.951 83.203 318.878 83.0718C318.804 82.9406 318.786 82.7856 318.827 82.6409C318.868 82.4962 318.964 82.3736 319.095 82.3001C319.227 82.2266 319.382 82.2083 319.526 82.2491L330.598 85.3753L333.724 74.304C333.768 74.1626 333.865 74.0438 333.995 73.9731C334.125 73.9024 334.278 73.8854 334.42 73.9257C334.563 73.966 334.684 74.0603 334.757 74.1887C334.831 74.317 334.852 74.469 334.815 74.6124L331.535 86.2291C331.501 86.348 331.43 86.4528 331.332 86.5275C331.233 86.6022 331.113 86.6427 330.99 86.6429Z" fill="#292A2E"/>
<path d="M349.21 91.7289L330.993 93.4564C329.111 93.6348 327.731 95.3047 327.909 97.1862L329.637 115.403C329.815 117.285 331.485 118.665 333.366 118.487L351.583 116.759C353.465 116.581 354.846 114.911 354.667 113.03L352.94 94.8126C352.761 92.9311 351.091 91.5505 349.21 91.7289Z" fill="#367CFF"/>
<path d="M408.747 35.7254L390.487 34.5512C388.6 34.43 386.973 35.8606 386.852 37.7467L385.678 56.0076C385.556 57.8937 386.987 59.521 388.873 59.6422L407.134 60.8164C409.02 60.9377 410.647 59.507 410.769 57.621L411.943 39.36C412.064 37.4739 410.634 35.8467 408.747 35.7254Z" fill="#292A2E"/>
<path d="M419.065 95.3165L400.872 93.359C398.993 93.1568 397.305 94.5162 397.103 96.3954L395.146 114.589C394.943 116.468 396.303 118.155 398.182 118.358L416.376 120.315C418.255 120.517 419.942 119.158 420.144 117.279L422.102 99.085C422.304 97.2059 420.944 95.5187 419.065 95.3165Z" fill="#0CBC8B"/>
<path d="M319.194 154.583L300.977 156.31C299.095 156.489 297.715 158.159 297.893 160.04L299.621 178.257C299.799 180.139 301.469 181.519 303.351 181.341L321.567 179.613C323.449 179.435 324.83 177.765 324.651 175.883L322.924 157.667C322.745 155.785 321.075 154.404 319.194 154.583Z" fill="white"/>
<path d="M303.025 181.924C302.034 181.922 301.078 181.551 300.344 180.883C299.611 180.215 299.152 179.298 299.057 178.311L297.329 160.094C297.231 159.041 297.554 157.992 298.228 157.177C298.902 156.362 299.872 155.847 300.924 155.746L319.14 154.019C319.662 153.969 320.188 154.023 320.689 154.177C321.19 154.331 321.655 154.582 322.059 154.915C322.463 155.249 322.797 155.659 323.042 156.122C323.287 156.585 323.439 157.092 323.488 157.614L325.216 175.83C325.314 176.883 324.991 177.932 324.317 178.747C323.644 179.562 322.674 180.077 321.621 180.178L303.405 181.905C303.277 181.917 303.15 181.924 303.025 181.924ZM319.524 155.134C319.433 155.134 319.341 155.139 319.25 155.147L301.031 156.873C300.277 156.945 299.583 157.314 299.1 157.897C298.618 158.481 298.387 159.232 298.457 159.986L300.185 178.202C300.258 178.955 300.626 179.649 301.21 180.131C301.793 180.613 302.543 180.845 303.297 180.775L321.514 179.047C322.267 178.975 322.961 178.607 323.444 178.023C323.926 177.44 324.157 176.689 324.087 175.935L322.359 157.718C322.292 157.012 321.964 156.356 321.439 155.878C320.915 155.4 320.231 155.134 319.521 155.133L319.524 155.134Z" fill="#292A2E"/>
<path d="M201.732 148.422L183.516 150.149C181.634 150.328 180.253 151.997 180.432 153.879L182.159 172.096C182.338 173.977 184.008 175.358 185.889 175.18L204.106 173.452C205.988 173.274 207.368 171.604 207.19 169.722L205.462 151.505C205.284 149.624 203.614 148.243 201.732 148.422Z" fill="#367CFF"/>
<path d="M347.479 82.4477C347.458 82.4477 347.436 82.4465 347.414 82.4443C347.34 82.4358 347.269 82.4128 347.204 82.3766C347.139 82.3404 347.081 82.2918 347.035 82.2334C346.989 82.1751 346.954 82.1082 346.934 82.0366C346.914 81.965 346.907 81.8901 346.916 81.8161C347.768 76.0923 349.537 70.5434 352.157 65.3833C357.826 54.3942 366.717 48.0915 377.862 47.1526C378.012 47.14 378.161 47.1874 378.275 47.2844C378.39 47.3815 378.462 47.5201 378.475 47.67C378.487 47.8198 378.44 47.9685 378.343 48.0834C378.246 48.1983 378.107 48.2699 377.957 48.2826C351.963 50.4687 348.079 81.6313 348.042 81.9459C348.026 82.084 347.96 82.2113 347.856 82.3038C347.752 82.3963 347.618 82.4475 347.479 82.4477Z" fill="#292A2E"/>
<path d="M372.47 53.901C372.358 53.9011 372.249 53.8679 372.155 53.8057C372.062 53.7435 371.989 53.6551 371.946 53.5516C371.903 53.4481 371.892 53.3342 371.914 53.2242C371.935 53.1142 371.989 53.0132 372.068 52.9338L377.307 47.672L372.046 42.4334C371.991 42.3812 371.948 42.3188 371.918 42.2497C371.888 42.1805 371.873 42.1062 371.872 42.0309C371.871 41.9557 371.885 41.881 371.914 41.8112C371.942 41.7415 371.984 41.6781 372.037 41.6248C372.09 41.5715 372.153 41.5292 372.223 41.5006C372.293 41.4719 372.367 41.4574 372.442 41.4579C372.518 41.4584 372.592 41.4739 372.661 41.5034C372.731 41.533 372.793 41.576 372.846 41.6301L378.508 47.2689C378.615 47.3752 378.674 47.5194 378.674 47.6697C378.674 47.82 378.615 47.9642 378.508 48.0705L372.87 53.7337C372.818 53.7866 372.756 53.8286 372.687 53.8573C372.618 53.886 372.545 53.9008 372.47 53.901Z" fill="#292A2E"/>
<path d="M310.622 146.114C310.501 146.114 310.382 146.075 310.285 146.003C310.187 145.931 310.115 145.83 310.08 145.714C309.995 145.436 301.842 117.902 322.95 106.481C323.015 106.444 323.087 106.42 323.162 106.411C323.237 106.403 323.313 106.409 323.386 106.43C323.458 106.45 323.526 106.485 323.584 106.533C323.643 106.58 323.692 106.638 323.728 106.705C323.763 106.771 323.786 106.844 323.793 106.919C323.8 106.994 323.793 107.07 323.771 107.142C323.748 107.214 323.712 107.281 323.663 107.338C323.615 107.396 323.556 107.444 323.489 107.478C303.204 118.453 311.084 145.111 311.166 145.379C311.192 145.464 311.197 145.553 311.182 145.641C311.167 145.728 311.132 145.811 311.079 145.882C311.027 145.953 310.958 146.011 310.879 146.051C310.8 146.091 310.712 146.112 310.624 146.112L310.622 146.114Z" fill="#292A2E"/>
<path d="M320.793 114.044C320.701 114.044 320.61 114.021 320.529 113.978C320.447 113.935 320.378 113.873 320.326 113.797C320.274 113.721 320.241 113.633 320.231 113.542C320.22 113.45 320.232 113.357 320.266 113.271L322.631 107.195L316.555 104.828C316.417 104.771 316.308 104.663 316.249 104.527C316.19 104.39 316.188 104.236 316.241 104.098C316.295 103.959 316.401 103.848 316.537 103.786C316.672 103.725 316.826 103.72 316.965 103.771L323.57 106.342C323.64 106.369 323.703 106.409 323.757 106.46C323.811 106.512 323.854 106.574 323.884 106.642C323.914 106.71 323.93 106.783 323.931 106.858C323.933 106.932 323.92 107.006 323.893 107.076L321.322 113.68C321.281 113.787 321.208 113.879 321.114 113.944C321.02 114.009 320.908 114.044 320.793 114.044Z" fill="#292A2E"/>
<path d="M240.109 52.466C239.959 52.466 239.815 52.4063 239.709 52.2999C239.602 52.1936 239.543 52.0494 239.543 51.8991C239.543 43.2866 237.001 36.7123 231.986 32.3594C223.085 24.6336 209.241 26.496 209.102 26.5159C208.953 26.5371 208.802 26.4984 208.682 26.4082C208.562 26.318 208.482 26.1837 208.461 26.0348C208.439 25.886 208.478 25.7347 208.568 25.6144C208.659 25.4941 208.793 25.4146 208.942 25.3933C209.529 25.3088 223.428 23.434 232.724 31.4982C238.002 36.0762 240.677 42.9402 240.676 51.8991C240.676 51.9735 240.662 52.0472 240.633 52.116C240.605 52.1848 240.563 52.2473 240.51 52.2999C240.458 52.3526 240.395 52.3943 240.326 52.4228C240.258 52.4513 240.184 52.466 240.109 52.466Z" fill="#292A2E"/>
<path d="M240.137 52.669C240.119 52.669 240.101 52.669 240.083 52.669C240.009 52.662 239.937 52.6405 239.871 52.6057C239.805 52.5709 239.747 52.5234 239.7 52.466L234.601 46.3096C234.505 46.1937 234.459 46.0445 234.473 45.8948C234.487 45.745 234.56 45.607 234.676 45.5111C234.792 45.4151 234.941 45.3691 235.091 45.3832C235.241 45.3973 235.379 45.4703 235.475 45.5862L240.214 51.3083L245.933 46.5732C245.99 46.5258 246.057 46.4901 246.128 46.4682C246.199 46.4463 246.274 46.4386 246.348 46.4456C246.422 46.4526 246.494 46.4741 246.56 46.509C246.626 46.5438 246.684 46.5913 246.731 46.6486C246.779 46.706 246.814 46.7721 246.836 46.8433C246.858 46.9145 246.866 46.9892 246.859 47.0634C246.852 47.1375 246.83 47.2095 246.796 47.2753C246.761 47.3411 246.713 47.3994 246.656 47.4469L240.497 52.5409C240.396 52.6241 240.268 52.6694 240.137 52.669Z" fill="#292A2E"/>
<path d="M252.672 115.009H234.373C232.483 115.009 230.951 116.541 230.951 118.431V136.73C230.951 138.62 232.483 140.152 234.373 140.152H252.672C254.562 140.152 256.094 138.62 256.094 136.73V118.431C256.094 116.541 254.562 115.009 252.672 115.009Z" fill="#0CBC8B"/>
<path d="M299.276 148.451C299.15 148.45 299.027 148.408 298.928 148.33C298.828 148.253 298.758 148.144 298.727 148.021C292.406 122.736 261.5 124.509 261.192 124.53C261.118 124.535 261.043 124.526 260.973 124.502C260.902 124.478 260.837 124.44 260.78 124.391C260.724 124.342 260.678 124.282 260.645 124.216C260.612 124.149 260.592 124.076 260.587 124.002C260.582 123.927 260.592 123.852 260.616 123.782C260.64 123.711 260.677 123.646 260.726 123.589C260.775 123.533 260.835 123.487 260.902 123.454C260.969 123.421 261.041 123.401 261.116 123.396C266.808 123.204 272.493 123.952 277.942 125.611C286.034 128.139 296.398 134.031 299.826 147.744C299.844 147.816 299.848 147.891 299.837 147.965C299.826 148.038 299.801 148.109 299.762 148.173C299.724 148.237 299.673 148.293 299.614 148.337C299.554 148.381 299.486 148.413 299.413 148.431C299.369 148.444 299.322 148.45 299.276 148.451Z" fill="#292A2E"/>
<path d="M299.355 148.642C299.237 148.642 299.122 148.605 299.026 148.537L292.61 143.984C292.488 143.897 292.405 143.764 292.38 143.616C292.355 143.468 292.39 143.316 292.477 143.193C292.564 143.071 292.696 142.988 292.844 142.963C292.993 142.938 293.145 142.973 293.267 143.06L299.214 147.28L303.453 141.133C303.539 141.011 303.67 140.927 303.817 140.9C303.964 140.874 304.116 140.907 304.239 140.992C304.363 141.077 304.447 141.207 304.475 141.354C304.502 141.501 304.47 141.653 304.386 141.777L299.821 148.397C299.779 148.459 299.724 148.511 299.661 148.552C299.598 148.593 299.527 148.62 299.453 148.633C299.421 148.639 299.388 148.642 299.355 148.642Z" fill="#292A2E"/>
<path d="M578.076 513.228L579.189 513.014L561.786 340.078L560.673 340.293L578.076 513.228Z" fill="#494949"/>
<path d="M513.275 513.228L514.389 513.014L496.986 340.078L495.873 340.293L513.275 513.228Z" fill="#494949"/>
<path d="M370.038 513.228L368.925 513.014L386.328 340.078L387.441 340.293L370.038 513.228Z" fill="#494949"/>
<path d="M434.839 513.228L433.725 513.014L451.128 340.078L452.241 340.293L434.839 513.228Z" fill="#494949"/>
<path d="M457.912 263.964L447.745 340.107L448.869 340.257L459.036 264.114L457.912 263.964Z" fill="#494949"/>
<path d="M574.601 263.964L564.435 340.107L565.559 340.257L575.725 264.114L574.601 263.964Z" fill="#494949"/>
<path d="M447.848 345.761H561.985C565.065 345.761 567.561 343.265 567.561 340.185V340.185C567.561 337.105 565.065 334.609 561.985 334.609H447.848C444.769 334.609 442.273 337.105 442.273 340.185V340.185C442.273 343.265 444.769 345.761 447.848 345.761Z" fill="#292A2E"/>
<path opacity="0.8" d="M447.848 345.761H561.985C565.065 345.761 567.561 343.265 567.561 340.185V340.185C567.561 337.105 565.065 334.609 561.985 334.609H447.848C444.769 334.609 442.273 337.105 442.273 340.185V340.185C442.273 343.265 444.769 345.761 447.848 345.761Z" fill="white"/>
<path d="M441.706 340.185C441.708 338.557 442.355 336.996 443.507 335.844C444.659 334.693 446.22 334.045 447.848 334.043H561.985C563.615 334.043 565.177 334.69 566.329 335.842C567.481 336.994 568.128 338.557 568.128 340.186C568.128 341.815 567.481 343.378 566.329 344.53C565.177 345.682 563.615 346.329 561.985 346.329H447.848C446.22 346.327 444.658 345.679 443.507 344.527C442.355 343.375 441.707 341.814 441.706 340.185ZM447.848 335.176C446.52 335.176 445.246 335.704 444.307 336.643C443.367 337.583 442.839 338.857 442.839 340.185C442.839 341.514 443.367 342.788 444.307 343.727C445.246 344.667 446.52 345.194 447.848 345.194H561.985C563.314 345.194 564.588 344.667 565.527 343.727C566.467 342.788 566.994 341.514 566.994 340.185C566.994 338.857 566.467 337.583 565.527 336.643C564.588 335.704 563.314 335.176 561.985 335.176H447.848Z" fill="#292A2E"/>
<path d="M385.204 345.761H499.341C502.421 345.761 504.917 343.265 504.917 340.185V340.185C504.917 337.105 502.421 334.609 499.341 334.609H385.204C382.125 334.609 379.628 337.105 379.628 340.185V340.185C379.628 343.265 382.125 345.761 385.204 345.761Z" fill="white"/>
<path d="M379.058 340.185C379.06 338.556 379.709 336.995 380.861 335.843C382.013 334.692 383.575 334.044 385.204 334.043H499.341C500.97 334.043 502.533 334.69 503.685 335.842C504.837 336.994 505.484 338.557 505.484 340.186C505.484 341.815 504.837 343.378 503.685 344.53C502.533 345.682 500.97 346.329 499.341 346.329H385.204C383.575 346.327 382.013 345.68 380.861 344.528C379.708 343.376 379.06 341.814 379.058 340.185ZM385.204 335.177C384.546 335.177 383.895 335.307 383.287 335.558C382.679 335.81 382.127 336.179 381.662 336.644C381.197 337.109 380.828 337.661 380.576 338.269C380.325 338.877 380.195 339.528 380.195 340.186C380.195 340.844 380.325 341.495 380.576 342.103C380.828 342.71 381.197 343.263 381.662 343.728C382.127 344.193 382.679 344.562 383.287 344.814C383.895 345.065 384.546 345.195 385.204 345.195H499.341C500.669 345.195 501.944 344.667 502.883 343.728C503.822 342.788 504.35 341.514 504.35 340.186C504.35 338.857 503.822 337.583 502.883 336.644C501.944 335.705 500.669 335.177 499.341 335.177H385.204Z" fill="#292A2E"/>
<path d="M464.17 264.043H574.864C576.674 264.043 578.422 263.384 579.782 262.19C581.142 260.995 582.02 259.347 582.254 257.552L589.576 201.322C589.713 200.271 589.624 199.203 589.315 198.189C589.006 197.175 588.485 196.238 587.786 195.442C587.086 194.645 586.225 194.007 585.259 193.57C584.294 193.133 583.246 192.907 582.186 192.907H471.492C469.682 192.907 467.933 193.565 466.573 194.76C465.212 195.954 464.333 197.603 464.1 199.399L456.778 255.628C456.641 256.679 456.73 257.748 457.039 258.762C457.348 259.776 457.869 260.712 458.569 261.509C459.269 262.305 460.13 262.943 461.096 263.38C462.062 263.817 463.11 264.043 464.17 264.043Z" fill="#292A2E"/>
<path opacity="0.8" d="M464.17 264.043H574.864C576.674 264.043 578.422 263.384 579.782 262.19C581.142 260.995 582.02 259.347 582.254 257.552L589.576 201.322C589.713 200.271 589.624 199.203 589.315 198.189C589.006 197.175 588.485 196.238 587.786 195.442C587.086 194.645 586.225 194.007 585.259 193.57C584.294 193.133 583.246 192.907 582.186 192.907H471.492C469.682 192.907 467.933 193.565 466.573 194.76C465.212 195.954 464.333 197.603 464.1 199.399L456.778 255.628C456.641 256.679 456.73 257.748 457.039 258.762C457.348 259.776 457.869 260.712 458.569 261.509C459.269 262.305 460.13 262.943 461.096 263.38C462.062 263.817 463.11 264.043 464.17 264.043Z" fill="white"/>
<path d="M458.147 261.882C457.394 261.025 456.833 260.017 456.5 258.926C456.168 257.835 456.072 256.686 456.219 255.555L463.541 199.325C463.797 197.396 464.744 195.625 466.206 194.34C467.668 193.056 469.547 192.346 471.493 192.341H582.187C583.328 192.341 584.455 192.585 585.494 193.055C586.534 193.525 587.46 194.212 588.213 195.069C588.966 195.926 589.527 196.934 589.859 198.025C590.191 199.116 590.287 200.265 590.139 201.397L582.818 257.625C582.562 259.555 581.616 261.326 580.153 262.611C578.691 263.895 576.812 264.605 574.866 264.61H464.17C463.03 264.609 461.903 264.366 460.864 263.895C459.826 263.425 458.899 262.739 458.147 261.882ZM471.492 193.475C469.821 193.479 468.209 194.089 466.954 195.192C465.699 196.295 464.886 197.815 464.667 199.472L457.345 255.701C457.218 256.672 457.3 257.659 457.586 258.596C457.871 259.533 458.353 260.398 458.999 261.134C459.645 261.87 460.441 262.459 461.333 262.863C462.225 263.267 463.193 263.476 464.172 263.476H574.866C576.537 263.472 578.151 262.862 579.406 261.759C580.662 260.657 581.475 259.136 581.694 257.479L589.016 201.25C589.142 200.279 589.06 199.292 588.775 198.355C588.49 197.418 588.008 196.553 587.362 195.817C586.716 195.081 585.92 194.492 585.028 194.088C584.136 193.684 583.168 193.475 582.188 193.475H471.492Z" fill="#292A2E"/>
<path d="M457.91 264.043H568.604C570.414 264.043 572.162 263.384 573.522 262.19C574.882 260.995 575.761 259.347 575.995 257.552L583.317 201.322C583.453 200.271 583.364 199.202 583.056 198.189C582.747 197.175 582.225 196.238 581.526 195.442C580.827 194.645 579.965 194.007 579 193.57C578.034 193.133 576.986 192.907 575.926 192.907H465.234C463.424 192.907 461.676 193.566 460.316 194.76C458.956 195.954 458.078 197.602 457.844 199.397L450.522 255.626C450.385 256.677 450.473 257.746 450.782 258.76C451.091 259.774 451.612 260.71 452.311 261.507C453.01 262.304 453.872 262.942 454.837 263.379C455.803 263.816 456.85 264.043 457.91 264.043Z" fill="white"/>
<path d="M451.885 261.882C451.132 261.025 450.571 260.017 450.239 258.926C449.906 257.835 449.81 256.686 449.957 255.555L457.279 199.325C457.535 197.396 458.482 195.624 459.945 194.34C461.408 193.055 463.287 192.345 465.234 192.341H575.928C577.068 192.341 578.196 192.585 579.235 193.055C580.274 193.525 581.201 194.212 581.953 195.069C582.706 195.926 583.267 196.934 583.599 198.025C583.931 199.116 584.027 200.265 583.88 201.397L576.558 257.625C576.302 259.555 575.355 261.326 573.893 262.611C572.431 263.895 570.552 264.605 568.606 264.61H457.91C456.77 264.609 455.643 264.366 454.604 263.896C453.564 263.425 452.638 262.739 451.885 261.882ZM465.234 193.475C463.563 193.479 461.95 194.089 460.694 195.192C459.439 196.294 458.626 197.815 458.406 199.472L451.084 255.701C450.957 256.672 451.04 257.659 451.325 258.596C451.61 259.533 452.092 260.398 452.738 261.134C453.384 261.87 454.18 262.459 455.072 262.863C455.964 263.267 456.932 263.476 457.912 263.476H568.604C570.276 263.472 571.889 262.862 573.144 261.759C574.4 260.657 575.213 259.136 575.432 257.479L582.754 201.25C582.881 200.279 582.798 199.292 582.513 198.355C582.228 197.419 581.746 196.553 581.1 195.818C580.454 195.082 579.658 194.492 578.766 194.088C577.874 193.684 576.906 193.475 575.926 193.475H465.234Z" fill="#292A2E"/>
<path d="M374.25 483.271C374.25 483.271 371.211 499.029 356.457 499.907C341.704 500.785 344.903 512.538 344.903 512.538H401.282V484.37L374.25 483.271Z" fill="#367CFF"/>
<path d="M424.837 473.322C424.837 473.322 429.064 488.803 416.214 496.104C403.364 503.404 411.422 512.538 411.422 512.538L462.011 487.649L449.578 462.376L424.837 473.322Z" fill="#367CFF"/>
<path d="M456.171 468.949L413.509 334.363H490.84C506.374 334.363 512.849 321.19 512.849 305.657C512.849 290.124 497.578 276.507 482.045 276.507H377.676C368.202 276.507 357.579 282.301 352.379 290.221C347.179 298.141 348.585 310.414 352.352 319.107L420.669 485.033" fill="#262626"/>
<path opacity="0.8" d="M456.171 468.949L413.509 334.363H490.84C506.374 334.363 512.849 321.19 512.849 305.657C512.849 290.124 497.578 276.507 482.045 276.507H377.676C368.202 276.507 357.579 282.301 352.379 290.221C347.179 298.141 348.585 310.414 352.352 319.107L420.669 485.033" fill="#0A0A0A"/>
<path d="M405.69 494.567L419.183 334.363L512.847 334.356C534.795 332.636 544.846 320.608 544.526 305.078C544.211 289.745 536.447 274.601 521.183 274.601H394.944C383.651 274.833 370.576 285.516 370.576 297.803L364.016 492.705" fill="#262626"/>
<path d="M550.917 274.789C550.917 274.789 555.077 301.915 548.483 316.996C540.252 335.824 509.394 334.357 509.394 334.357L511.133 274.601L550.917 274.789Z" fill="#262626"/>
<path d="M555.501 271.723L555.621 271.73C555.621 271.73 555.535 269.419 555.501 271.723Z" fill="#333333"/>
<path d="M555.35 271.723L555.471 271.73C555.471 271.73 555.384 269.419 555.35 271.723Z" fill="#333333"/>
<path d="M354.548 161.749C354.768 161.312 355.119 160.954 355.552 160.725C355.985 160.496 356.478 160.407 356.963 160.47C356.96 160.427 356.969 160.383 356.991 160.346C357.013 160.317 357.043 160.294 357.077 160.28C357.111 160.266 357.148 160.262 357.184 160.267L355.546 159.092C355.057 158.757 354.705 158.255 354.556 157.681C354.407 157.106 354.471 156.497 354.736 155.966C355.016 155.45 355.476 155.056 356.03 154.86C356.583 154.664 357.189 154.681 357.731 154.907C357.727 154.883 357.742 154.861 357.746 154.837L357.073 154.355C356.613 154.037 356.276 153.57 356.121 153.033C355.965 152.496 356 151.921 356.219 151.407C356.363 151.087 356.577 150.803 356.844 150.575C357.112 150.348 357.426 150.183 357.765 150.092C358.104 150 358.459 149.986 358.805 150.048C359.15 150.111 359.477 150.249 359.763 150.454L361.317 151.567C361.321 151.558 361.317 151.547 361.323 151.539C361.329 151.53 361.346 151.527 361.355 151.518C360.998 151.116 360.788 150.606 360.76 150.07C360.732 149.533 360.886 149.003 361.198 148.566C361.932 147.387 363.625 147.628 364.63 148.348L373.775 154.664L372.142 151.907C371.812 151.377 371.696 150.742 371.817 150.131C371.938 149.519 372.287 148.976 372.792 148.611C373.06 148.432 373.361 148.309 373.678 148.251C373.995 148.192 374.32 148.198 374.634 148.269C374.948 148.34 375.244 148.475 375.505 148.664C375.765 148.854 375.984 149.094 376.149 149.371L385.074 164.395C386.121 166.158 386.44 168.259 385.962 170.253C385.484 172.247 384.248 173.976 382.515 175.073C380.507 176.345 378.164 176.988 375.787 176.92C373.41 176.851 371.108 176.075 369.175 174.689L355.365 164.791C354.906 164.45 354.576 163.964 354.427 163.412C354.279 162.86 354.322 162.274 354.548 161.749Z" fill="#E98862"/>
<g opacity="0.25">
<path d="M370.367 157.805C370.333 157.851 370.283 157.882 370.227 157.892C370.17 157.901 370.112 157.888 370.065 157.856L361.376 151.838C361.329 151.804 361.297 151.754 361.287 151.697C361.277 151.64 361.29 151.582 361.322 151.534C361.355 151.487 361.405 151.454 361.462 151.444C361.519 151.433 361.578 151.445 361.625 151.478L370.315 157.497C370.339 157.513 370.359 157.534 370.375 157.558C370.391 157.582 370.401 157.609 370.407 157.637C370.412 157.666 370.411 157.695 370.405 157.723C370.399 157.751 370.388 157.778 370.372 157.801L370.367 157.805Z" fill="#0C0C0C"/>
</g>
<g opacity="0.25">
<path d="M367.819 161.71C367.785 161.757 367.735 161.788 367.678 161.797C367.622 161.807 367.564 161.794 367.517 161.761L357.822 155.045C357.775 155.012 357.742 154.961 357.731 154.904C357.72 154.847 357.733 154.788 357.766 154.74C357.8 154.694 357.85 154.663 357.907 154.652C357.963 154.642 358.022 154.653 358.07 154.684L367.768 161.4C367.791 161.417 367.812 161.437 367.827 161.461C367.843 161.486 367.854 161.513 367.859 161.541C367.864 161.569 367.864 161.598 367.858 161.626C367.852 161.654 367.841 161.681 367.824 161.705L367.819 161.71Z" fill="#0C0C0C"/>
</g>
<g opacity="0.25">
<path d="M365.083 165.956C365.049 166.002 364.999 166.034 364.942 166.043C364.886 166.053 364.828 166.04 364.781 166.007L357.046 160.65C357 160.616 356.969 160.565 356.959 160.509C356.95 160.453 356.963 160.395 356.995 160.348C357.028 160.302 357.077 160.269 357.133 160.258C357.189 160.248 357.247 160.259 357.295 160.29L365.03 165.648C365.054 165.664 365.074 165.685 365.09 165.709C365.106 165.733 365.117 165.76 365.122 165.788C365.127 165.817 365.127 165.846 365.121 165.874C365.115 165.902 365.103 165.929 365.087 165.952L365.083 165.956Z" fill="#0C0C0C"/>
</g>
<path d="M390.34 160.974L416.551 205.615L448.534 163.665L475.094 187.611L429.733 246.356L429.436 246.773C427.621 249.26 425.202 251.244 422.408 252.537C419.614 253.831 416.536 254.391 413.466 254.167C410.395 253.942 407.432 252.939 404.856 251.253C402.28 249.566 400.176 247.252 398.741 244.527L361.469 177.029L390.34 160.974Z" fill="#367CFF"/>
<path d="M419.119 210.983C419.176 210.983 419.232 210.968 419.282 210.94C419.332 210.913 419.373 210.872 419.403 210.824C419.433 210.775 419.45 210.72 419.452 210.663C419.454 210.606 419.442 210.549 419.416 210.499L416.846 205.464C416.804 205.388 416.735 205.332 416.652 205.306C416.569 205.281 416.48 205.289 416.403 205.328C416.326 205.367 416.267 205.435 416.239 205.517C416.211 205.599 416.216 205.688 416.253 205.766L418.823 210.801C418.85 210.856 418.893 210.902 418.945 210.934C418.998 210.966 419.058 210.983 419.119 210.983Z" fill="#0C0C0C"/>
<path d="M450.376 205.362L449.711 205.4L450.512 219.499L451.176 219.461L450.376 205.362Z" fill="#0C0C0C"/>
<path d="M534.835 103.32C534.835 103.32 536.064 119.014 539.663 124.671C550.026 140.958 553.186 159.379 543.111 169.138C533.035 178.897 468.06 179.784 462.881 157.667C458.521 139.045 467.391 136.934 469.377 121.507C470.275 114.528 472.799 99.8835 472.799 99.8835" fill="#0A0A0A"/>
<path d="M479.422 154.129C479.536 154.114 480.779 174.765 504.773 172.967C521.384 171.723 527.305 154.099 527.686 154.099C525.895 153.719 522.88 153.165 522.084 152.739C519.469 151.333 516.232 149.871 515.389 144.792C514.903 141.864 515.73 126.887 515.474 123.925L489.977 129.616C490.333 135.871 492.827 150.374 484.087 152.94C482.633 153.367 481.067 153.758 479.422 154.129Z" fill="#E98862"/>
<path opacity="0.52" d="M489.62 147.016C490.019 145.729 490.276 144.402 490.387 143.059C490.667 139.994 490.611 136.907 490.22 133.855C495.402 133.155 500.285 131.016 504.312 127.681C504.785 129.429 507.389 137.069 506.668 138.731C505.305 141.873 498.902 147.016 489.62 147.016Z" fill="#0C0C0C"/>
<path d="M492.999 140.516C503.062 141.372 516.021 137.2 518.56 123.784L520.851 111.677C523.391 98.2598 518.402 86.0513 505.771 83.6588C493.138 81.268 481.637 90.3578 479.098 103.775L478.083 109.134C477.108 114.283 475.045 138.988 492.999 140.516Z" fill="#E98862"/>
<path d="M481.682 109.719C482.557 109.719 483.266 109.01 483.266 108.135C483.266 107.261 482.557 106.552 481.682 106.552C480.808 106.552 480.099 107.261 480.099 108.135C480.099 109.01 480.808 109.719 481.682 109.719Z" fill="#0C0C0C"/>
<path d="M497.906 111.886C498.78 111.886 499.489 111.177 499.489 110.302C499.489 109.428 498.78 108.719 497.906 108.719C497.031 108.719 496.322 109.428 496.322 110.302C496.322 111.177 497.031 111.886 497.906 111.886Z" fill="#0C0C0C"/>
<path d="M489.003 121.912C488.994 121.912 488.986 121.91 488.978 121.909C488.467 121.808 487.961 121.679 487.463 121.523C486.72 121.284 485.747 120.888 485.876 120.219C486.02 119.454 489.674 111.601 490.092 110.709C490.128 110.631 490.194 110.571 490.275 110.541C490.356 110.512 490.445 110.516 490.523 110.552C490.601 110.588 490.661 110.654 490.691 110.735C490.72 110.816 490.717 110.905 490.68 110.983C489.121 114.328 486.611 119.827 486.514 120.338C486.597 120.576 487.83 121.029 489.1 121.27C489.183 121.285 489.257 121.332 489.307 121.4C489.356 121.469 489.377 121.554 489.364 121.638C489.352 121.721 489.307 121.796 489.24 121.848C489.173 121.899 489.088 121.922 489.004 121.912L489.003 121.912Z" fill="#0C0C0C"/>
<path d="M490.874 127.705C488.813 127.437 486.844 126.689 485.125 125.521C485.053 125.474 485.003 125.401 484.985 125.316C484.967 125.232 484.984 125.144 485.031 125.072C485.078 125 485.151 124.95 485.236 124.932C485.32 124.914 485.408 124.931 485.48 124.978C489.198 127.401 492.894 127.792 496.166 126.111C496.232 126.075 496.3 126.043 496.369 126.015C496.45 125.985 496.54 125.989 496.617 126.026C496.695 126.062 496.756 126.128 496.785 126.209C496.814 126.29 496.81 126.379 496.773 126.457C496.737 126.535 496.671 126.595 496.59 126.625C496.565 126.635 496.521 126.658 496.462 126.689C494.742 127.576 492.796 127.93 490.874 127.705Z" fill="#0C0C0C"/>
<path d="M530.958 115.896L519.633 113.82C511.057 110.349 508.464 95.5022 508.464 95.5022C508.464 95.5022 498.047 105.656 472.803 99.8813C472.803 99.8813 477.866 64.6741 515.163 74.9108C527.189 78.2121 535.82 90.3317 534.745 106.528C533.987 117.879 530.958 115.896 530.958 115.896Z" fill="#0A0A0A"/>
<path d="M517.002 127.723C520.841 128.449 524.73 124.931 525.457 121.089C526.184 117.248 523.473 114.544 519.633 113.818L517.168 116.016L513.702 127.096L517.002 127.723Z" fill="#E98862"/>
<path d="M487.777 104.291C486.657 103.568 485.363 103.16 484.031 103.109C483.376 103.08 482.719 103.149 482.084 103.315C481.455 103.476 480.849 103.716 480.28 104.03C480.207 104.073 480.153 104.143 480.129 104.224C480.105 104.305 480.112 104.393 480.149 104.469C480.186 104.546 480.25 104.605 480.329 104.637C480.407 104.668 480.495 104.669 480.575 104.64L480.598 104.629C481.124 104.371 481.681 104.181 482.254 104.062C482.821 103.94 483.403 103.906 483.981 103.959C485.126 104.054 486.226 104.451 487.168 105.11L487.199 105.132C487.252 105.177 487.315 105.21 487.382 105.23C487.449 105.25 487.519 105.255 487.589 105.247C487.658 105.238 487.725 105.215 487.785 105.18C487.845 105.144 487.898 105.096 487.939 105.04C487.98 104.983 488.009 104.919 488.024 104.851C488.039 104.782 488.04 104.712 488.026 104.643C488.013 104.574 487.986 104.509 487.946 104.452C487.907 104.394 487.855 104.345 487.796 104.308L487.777 104.291Z" fill="#0C0C0C"/>
<path d="M497.876 106.669C498.993 106.396 500.162 106.423 501.265 106.747C501.822 106.907 502.352 107.15 502.837 107.468C503.329 107.786 503.778 108.166 504.175 108.597L504.193 108.615C504.257 108.672 504.339 108.702 504.424 108.702C504.509 108.701 504.59 108.668 504.652 108.61C504.714 108.552 504.752 108.473 504.759 108.389C504.766 108.304 504.741 108.22 504.689 108.153C504.271 107.656 503.793 107.213 503.265 106.835C502.732 106.451 502.146 106.149 501.524 105.939C500.263 105.505 498.909 105.419 497.603 105.689C497.479 105.725 497.372 105.806 497.306 105.917C497.239 106.028 497.217 106.16 497.244 106.287C497.272 106.413 497.346 106.525 497.452 106.599C497.558 106.673 497.689 106.703 497.817 106.685L497.838 106.68L497.876 106.669Z" fill="#0C0C0C"/>
<path d="M490.435 130.751C490.062 130.709 489.693 130.635 489.332 130.53C489.249 130.506 489.18 130.45 489.138 130.375C489.096 130.299 489.086 130.211 489.11 130.128C489.134 130.045 489.19 129.975 489.265 129.934C489.34 129.892 489.429 129.882 489.512 129.906C491.683 130.53 492.918 129.703 492.97 129.667C493.041 129.618 493.128 129.598 493.213 129.613C493.297 129.628 493.373 129.676 493.422 129.746C493.472 129.817 493.491 129.904 493.476 129.989C493.462 130.074 493.414 130.149 493.343 130.199C492.467 130.713 491.439 130.908 490.435 130.751Z" fill="#0C0C0C"/>
<path d="M519.609 113.677L519.722 113.363C505.374 108.213 508.883 94.132 508.919 93.9902L508.597 93.9058C508.559 94.0503 504.97 108.421 519.609 113.677Z" fill="#0C0C0C"/>
<path opacity="0.1" d="M502.419 121.022C502.55 119.807 501.313 118.677 499.657 118.499C498 118.321 496.551 119.161 496.42 120.376C496.29 121.592 497.527 122.721 499.183 122.899C500.84 123.077 502.289 122.237 502.419 121.022Z" fill="#0C0C0C"/>
<path opacity="0.1" d="M481.65 118.252C481.516 119.465 480.068 120.305 478.411 120.129C478.125 120.098 477.842 120.038 477.569 119.948C477.475 118.504 477.455 117.114 477.482 115.828C477.94 115.708 478.416 115.674 478.886 115.729C480.541 115.905 481.779 117.034 481.65 118.252Z" fill="#0C0C0C"/>
<path d="M449.612 199.598C450.368 208.477 454.044 263.663 454.771 274.601L550.917 274.805C551.484 264.941 558.018 221.812 560.164 202.524C562.211 184.118 566.23 174.903 563.282 169.462C558.47 160.569 545.32 155.43 536.352 154.215C530.877 153.474 522.642 152.943 522.642 152.943C522.642 152.943 521.945 167.048 505.319 167.833C482.686 168.901 484.197 152.943 484.085 152.943C480.419 152.943 459.473 155.264 454.348 158.301C440.387 166.568 448.008 180.783 449.612 199.598Z" fill="#367CFF"/>
<path d="M387.204 205.8L396.472 250.846C396.66 251.76 397.156 252.583 397.877 253.176C398.599 253.769 399.502 254.097 400.435 254.105L464.251 254.648C464.86 254.653 465.462 254.522 466.014 254.265C466.565 254.007 467.052 253.629 467.439 253.159C467.826 252.689 468.102 252.138 468.249 251.547C468.395 250.956 468.407 250.34 468.284 249.744L459.016 204.698C458.828 203.784 458.332 202.961 457.611 202.368C456.89 201.775 455.987 201.447 455.053 201.439L391.237 200.896C390.629 200.891 390.026 201.022 389.475 201.279C388.923 201.537 388.436 201.915 388.049 202.385C387.663 202.855 387.386 203.406 387.24 203.997C387.094 204.588 387.081 205.204 387.204 205.8Z" fill="#292A2E"/>
<path d="M446.711 237.797C446.677 238.39 446.859 238.975 447.222 239.445C447.586 239.915 448.107 240.238 448.689 240.354L450.654 240.787C450.618 240.799 450.587 240.819 450.561 240.845C450.536 240.872 450.517 240.905 450.507 240.94C450.502 240.982 450.511 241.024 450.533 241.06C450.061 241.193 449.642 241.469 449.334 241.851C449.026 242.233 448.845 242.701 448.815 243.191C448.813 243.762 449.003 244.317 449.354 244.766C449.706 245.216 450.199 245.534 450.753 245.669L467.342 249.354C468.19 249.543 469.057 249.638 469.926 249.637C471.862 249.637 473.77 249.166 475.483 248.264C477.197 247.363 478.665 246.058 479.762 244.463C480.925 242.775 481.384 240.699 481.041 238.678C480.698 236.657 479.579 234.85 477.924 233.641L463.813 223.322C463.502 223.095 463.141 222.947 462.761 222.889L464.059 229.196L463.713 229.116L463.639 229.103L452.818 226.902C451.612 226.636 449.961 227.072 449.748 228.447C449.633 228.972 449.7 229.52 449.936 230.003C450.173 230.485 450.566 230.873 451.052 231.104C451.045 231.111 451.031 231.117 451.031 231.131C451.031 231.145 451.038 231.151 451.038 231.164L449.167 230.751C448.825 230.675 448.47 230.677 448.129 230.754C447.787 230.832 447.467 230.985 447.191 231.201C446.915 231.418 446.691 231.692 446.534 232.006C446.378 232.319 446.292 232.663 446.285 233.014C446.285 233.574 446.478 234.116 446.833 234.549C447.187 234.983 447.681 235.28 448.229 235.391L449.035 235.571C449.042 235.597 449.035 235.624 449.049 235.644C448.461 235.649 447.896 235.871 447.464 236.269C447.032 236.667 446.764 237.212 446.711 237.797Z" fill="#E98862"/>
<g opacity="0.25">
<path d="M461.813 233.35C461.8 233.406 461.766 233.454 461.718 233.485C461.67 233.516 461.612 233.527 461.556 233.516L451.201 231.392C451.172 231.387 451.145 231.376 451.12 231.36C451.096 231.344 451.075 231.323 451.058 231.299C451.042 231.275 451.031 231.248 451.025 231.219C451.019 231.191 451.019 231.161 451.025 231.132C451.031 231.104 451.042 231.077 451.059 231.052C451.076 231.028 451.097 231.008 451.121 230.992C451.146 230.976 451.173 230.966 451.202 230.961C451.231 230.956 451.261 230.957 451.289 230.963L461.644 233.087C461.672 233.093 461.699 233.104 461.722 233.12C461.746 233.136 461.766 233.157 461.782 233.181C461.798 233.205 461.809 233.231 461.814 233.26C461.82 233.288 461.82 233.317 461.814 233.345L461.813 233.35Z" fill="#0C0C0C"/>
</g>
<g opacity="0.25">
<path d="M461.003 237.943C460.99 237.998 460.955 238.047 460.907 238.077C460.859 238.108 460.801 238.119 460.745 238.108L449.189 235.738C449.161 235.732 449.134 235.721 449.111 235.705C449.087 235.689 449.066 235.668 449.051 235.644C449.035 235.62 449.024 235.593 449.018 235.565C449.013 235.537 449.013 235.508 449.019 235.48C449.033 235.424 449.067 235.376 449.115 235.344C449.163 235.312 449.221 235.3 449.278 235.31L460.833 237.68C460.89 237.692 460.94 237.725 460.971 237.774C461.003 237.822 461.015 237.881 461.003 237.938L461.003 237.943Z" fill="#0C0C0C"/>
</g>
<g opacity="0.25">
<path d="M460.153 242.922C460.14 242.977 460.106 243.026 460.058 243.057C460.01 243.088 459.952 243.099 459.896 243.087L450.678 241.197C450.622 241.185 450.573 241.151 450.541 241.102C450.51 241.054 450.499 240.995 450.511 240.939C450.522 240.883 450.556 240.833 450.604 240.801C450.651 240.769 450.71 240.758 450.766 240.768L459.984 242.659C460.04 242.67 460.09 242.704 460.122 242.752C460.154 242.801 460.165 242.86 460.154 242.917L460.153 242.922Z" fill="#0C0C0C"/>
</g>
<path d="M468.369 255.915L558.37 272.179C561.178 272.485 564.019 272.136 566.67 271.159C569.321 270.182 571.71 268.604 573.648 266.55C575.587 264.495 577.023 262.018 577.844 259.315C578.664 256.612 578.848 253.755 578.379 250.969L565.779 176.076C565.387 173.703 564.531 171.43 563.259 169.388C561.987 167.346 560.324 165.575 558.367 164.177C556.409 162.779 554.195 161.781 551.851 161.24C549.507 160.699 547.079 160.626 544.707 161.025C542.334 161.424 540.064 162.288 538.026 163.566C535.988 164.844 534.222 166.511 532.83 168.473C531.437 170.435 530.446 172.652 529.912 174.998C529.378 177.343 529.312 179.771 529.718 182.143L538.313 233.7L472.326 225.413L468.369 255.915Z" fill="#367CFF"/>
<path d="M558.37 272.513C558.453 272.512 558.533 272.48 558.593 272.423C558.654 272.367 558.691 272.29 558.698 272.208C558.705 272.125 558.681 272.043 558.631 271.977C558.581 271.912 558.508 271.867 558.427 271.852L468.737 255.644L472.611 225.785L538.263 234.03C538.314 234.037 538.367 234.032 538.416 234.015C538.466 233.997 538.51 233.968 538.546 233.931C538.582 233.893 538.608 233.848 538.624 233.799C538.639 233.75 538.643 233.698 538.635 233.647L533.177 200.698C533.17 200.655 533.155 200.613 533.132 200.576C533.109 200.538 533.079 200.506 533.043 200.48C533.007 200.455 532.967 200.437 532.924 200.427C532.881 200.417 532.837 200.416 532.794 200.424C532.707 200.439 532.629 200.487 532.578 200.559C532.526 200.631 532.506 200.72 532.52 200.807L537.906 233.316L472.367 225.086C472.28 225.075 472.192 225.1 472.123 225.153C472.053 225.207 472.007 225.286 471.995 225.373L468.039 255.875C468.028 255.959 468.05 256.045 468.1 256.114C468.151 256.183 468.226 256.23 468.31 256.245L558.311 272.507C558.331 272.511 558.35 272.513 558.37 272.513Z" fill="#0C0C0C"/>
<path d="M538.365 233.374L538.26 234.032L544.049 234.959L544.154 234.3L538.365 233.374Z" fill="#0C0C0C"/>
<path d="M618.604 512.892H0.39686C0.291606 512.892 0.190663 512.85 0.116238 512.776C0.041812 512.701 0 512.6 0 512.495C0 512.39 0.041812 512.289 0.116238 512.215C0.190663 512.14 0.291606 512.098 0.39686 512.098H618.603C618.708 512.098 618.809 512.14 618.884 512.215C618.958 512.289 619 512.39 619 512.495C619 512.6 618.958 512.701 618.884 512.776C618.809 512.85 618.708 512.892 618.603 512.892H618.604Z" fill="#292A2E"/>
<g opacity="0.65">
<path d="M618.604 512.892H0.39686C0.291606 512.892 0.190663 512.85 0.116238 512.776C0.041812 512.701 0 512.6 0 512.495C0 512.39 0.041812 512.289 0.116238 512.215C0.190663 512.14 0.291606 512.098 0.39686 512.098H618.603C618.708 512.098 618.809 512.14 618.884 512.215C618.958 512.289 619 512.39 619 512.495C619 512.6 618.958 512.701 618.884 512.776C618.809 512.85 618.708 512.892 618.603 512.892H618.604Z" fill="#292A2E"/>
</g>
<path d="M38.4132 513.228L37.2998 513.013L54.7027 340.078L55.8161 340.292L38.4132 513.228Z" fill="#494949"/>
<path d="M103.214 513.228L102.1 513.013L119.503 340.078L120.616 340.292L103.214 513.228Z" fill="#494949"/>
<path d="M246.451 513.228L247.564 513.013L230.161 340.078L229.048 340.292L246.451 513.228Z" fill="#494949"/>
<path d="M181.65 513.228L182.764 513.013L165.361 340.078L164.248 340.292L181.65 513.228Z" fill="#494949"/>
<path d="M158.571 263.969L157.447 264.119L167.614 340.262L168.738 340.112L158.571 263.969Z" fill="#494949"/>
<path d="M41.8804 263.968L40.7564 264.118L50.9228 340.261L52.0467 340.111L41.8804 263.968Z" fill="#494949"/>
<path d="M168.641 334.609H54.5037C51.4242 334.609 48.9278 337.106 48.9278 340.185V340.186C48.9278 343.265 51.4242 345.762 54.5037 345.762H168.641C171.72 345.762 174.217 343.265 174.217 340.186V340.185C174.217 337.106 171.72 334.609 168.641 334.609Z" fill="#292A2E"/>
<path opacity="0.8" d="M168.641 334.609H54.5037C51.4242 334.609 48.9278 337.106 48.9278 340.185V340.186C48.9278 343.265 51.4242 345.762 54.5037 345.762H168.641C171.72 345.762 174.217 343.265 174.217 340.186V340.185C174.217 337.106 171.72 334.609 168.641 334.609Z" fill="white"/>
<path d="M168.641 346.328H54.5037C53.697 346.328 52.8982 346.169 52.1529 345.86C51.4076 345.552 50.7304 345.099 50.16 344.529C49.5896 343.958 49.1371 343.281 48.8284 342.536C48.5197 341.791 48.3608 340.992 48.3608 340.185C48.3608 339.379 48.5197 338.58 48.8284 337.834C49.1371 337.089 49.5896 336.412 50.16 335.842C50.7304 335.271 51.4076 334.819 52.1529 334.51C52.8982 334.201 53.697 334.042 54.5037 334.042H168.641C170.27 334.042 171.832 334.69 172.984 335.842C174.136 336.994 174.784 338.556 174.784 340.185C174.784 341.814 174.136 343.377 172.984 344.529C171.832 345.681 170.27 346.328 168.641 346.328ZM54.5037 335.177C53.8459 335.177 53.1945 335.306 52.5868 335.558C51.9791 335.81 51.4269 336.179 50.9618 336.644C50.4967 337.109 50.1277 337.661 49.876 338.269C49.6243 338.877 49.4947 339.528 49.4947 340.186C49.4947 340.844 49.6243 341.495 49.876 342.103C50.1277 342.71 50.4967 343.263 50.9618 343.728C51.4269 344.193 51.9791 344.562 52.5868 344.813C53.1945 345.065 53.8459 345.195 54.5037 345.195H168.641C169.969 345.195 171.243 344.667 172.183 343.728C173.122 342.788 173.65 341.514 173.65 340.186C173.65 338.857 173.122 337.583 172.183 336.644C171.243 335.705 169.969 335.177 168.641 335.177H54.5037Z" fill="#292A2E"/>
<path d="M231.285 334.609H117.148C114.069 334.609 111.572 337.106 111.572 340.185V340.186C111.572 343.265 114.069 345.762 117.148 345.762H231.285C234.365 345.762 236.861 343.265 236.861 340.186V340.185C236.861 337.106 234.365 334.609 231.285 334.609Z" fill="white"/>
<path d="M231.285 346.328H117.148C116.341 346.328 115.543 346.169 114.797 345.86C114.052 345.552 113.375 345.099 112.804 344.529C112.234 343.958 111.782 343.281 111.473 342.536C111.164 341.791 111.005 340.992 111.005 340.185C111.005 339.379 111.164 338.58 111.473 337.834C111.782 337.089 112.234 336.412 112.804 335.842C113.375 335.271 114.052 334.819 114.797 334.51C115.543 334.201 116.341 334.042 117.148 334.042H231.285C232.092 334.042 232.891 334.201 233.636 334.51C234.381 334.819 235.058 335.271 235.629 335.842C236.199 336.412 236.652 337.089 236.96 337.834C237.269 338.58 237.428 339.379 237.428 340.185C237.428 340.992 237.269 341.791 236.96 342.536C236.652 343.281 236.199 343.958 235.629 344.529C235.058 345.099 234.381 345.552 233.636 345.86C232.891 346.169 232.092 346.328 231.285 346.328ZM117.148 335.177C116.49 335.177 115.839 335.306 115.231 335.558C114.623 335.81 114.071 336.179 113.606 336.644C113.141 337.109 112.772 337.661 112.52 338.269C112.269 338.877 112.139 339.528 112.139 340.186C112.139 340.844 112.269 341.495 112.52 342.103C112.772 342.71 113.141 343.263 113.606 343.728C114.071 344.193 114.623 344.562 115.231 344.813C115.839 345.065 116.49 345.195 117.148 345.195H231.285C231.943 345.195 232.594 345.065 233.202 344.813C233.81 344.562 234.362 344.193 234.827 343.728C235.292 343.263 235.661 342.71 235.913 342.103C236.164 341.495 236.294 340.844 236.294 340.186C236.294 339.528 236.164 338.877 235.913 338.269C235.661 337.661 235.292 337.109 234.827 336.644C234.362 336.179 233.81 335.81 233.202 335.558C232.594 335.306 231.943 335.177 231.285 335.177H117.148Z" fill="#292A2E"/>
<path d="M152.319 264.043H41.625C39.8151 264.042 38.0672 263.384 36.7073 262.189C35.3475 260.995 34.4687 259.347 34.2349 257.552L26.9128 201.322C26.776 200.271 26.8649 199.202 27.1737 198.188C27.4825 197.174 28.004 196.238 28.7034 195.442C29.4028 194.645 30.2641 194.007 31.2297 193.57C32.1953 193.133 33.243 192.907 34.3029 192.907H144.997C146.807 192.907 148.555 193.566 149.915 194.76C151.274 195.954 152.153 197.602 152.387 199.397L159.708 255.626C159.846 256.677 159.757 257.746 159.448 258.76C159.14 259.774 158.618 260.711 157.919 261.507C157.22 262.304 156.358 262.942 155.393 263.379C154.427 263.816 153.379 264.043 152.319 264.043Z" fill="#292A2E"/>
<path opacity="0.8" d="M152.319 264.043H41.625C39.8151 264.042 38.0672 263.384 36.7073 262.189C35.3475 260.995 34.4687 259.347 34.2349 257.552L26.9128 201.322C26.776 200.271 26.8649 199.202 27.1737 198.188C27.4825 197.174 28.004 196.238 28.7034 195.442C29.4028 194.645 30.2641 194.007 31.2297 193.57C32.1953 193.133 33.243 192.907 34.3029 192.907H144.997C146.807 192.907 148.555 193.566 149.915 194.76C151.274 195.954 152.153 197.602 152.387 199.397L159.708 255.626C159.846 256.677 159.757 257.746 159.448 258.76C159.14 259.774 158.618 260.711 157.919 261.507C157.22 262.304 156.358 262.942 155.393 263.379C154.427 263.816 153.379 264.043 152.319 264.043Z" fill="white"/>
<path d="M152.319 264.609H41.625C39.6786 264.605 37.8 263.895 36.3375 262.61C34.8751 261.326 33.9282 259.555 33.6725 257.625L26.351 201.396C26.2036 200.265 26.2991 199.116 26.6313 198.025C26.9635 196.934 27.5246 195.926 28.2772 195.069C29.0299 194.212 29.9567 193.525 30.9958 193.055C32.0349 192.584 33.1623 192.341 34.3029 192.341H144.997C146.943 192.345 148.822 193.056 150.284 194.34C151.747 195.625 152.693 197.396 152.949 199.325L160.271 255.555C160.418 256.686 160.323 257.835 159.99 258.926C159.658 260.017 159.097 261.025 158.344 261.882C157.592 262.739 156.665 263.426 155.626 263.896C154.587 264.366 153.46 264.609 152.319 264.609ZM34.3029 193.475C33.3237 193.475 32.3557 193.684 31.4635 194.088C30.5714 194.492 29.7757 195.081 29.1295 195.817C28.4833 196.553 28.0015 197.418 27.7162 198.355C27.431 199.292 27.3488 200.278 27.4752 201.25L34.7973 257.479C35.0166 259.136 35.8296 260.657 37.0852 261.759C38.3408 262.862 39.9539 263.472 41.625 263.476H152.319C153.298 263.476 154.266 263.267 155.158 262.863C156.051 262.459 156.846 261.869 157.492 261.134C158.139 260.398 158.62 259.533 158.906 258.596C159.191 257.659 159.273 256.672 159.147 255.701L151.827 199.472C151.608 197.815 150.795 196.294 149.539 195.191C148.284 194.089 146.671 193.479 145 193.475H34.3029Z" fill="#292A2E"/>
<path d="M158.578 264.043H47.884C46.0742 264.042 44.3263 263.384 42.9666 262.189C41.6068 260.995 40.7281 259.347 40.4945 257.552L33.1724 201.322C33.0356 200.271 33.1245 199.202 33.4333 198.188C33.7421 197.174 34.2636 196.238 34.963 195.442C35.6624 194.645 36.5237 194.007 37.4893 193.57C38.4549 193.133 39.5026 192.907 40.5625 192.907H151.256C153.066 192.907 154.814 193.566 156.174 194.76C157.534 195.954 158.412 197.602 158.646 199.397L165.968 255.626C166.105 256.677 166.016 257.746 165.708 258.76C165.399 259.774 164.878 260.711 164.178 261.507C163.479 262.304 162.617 262.942 161.652 263.379C160.686 263.816 159.638 264.043 158.578 264.043Z" fill="white"/>
<path d="M158.578 264.609H47.884C45.9377 264.605 44.0591 263.895 42.5968 262.61C41.1344 261.326 40.1876 259.555 39.9321 257.625L32.61 201.396C32.4628 200.265 32.5585 199.116 32.8908 198.025C33.2231 196.934 33.7842 195.926 34.5369 195.069C35.2895 194.212 36.2163 193.525 37.2554 193.055C38.2945 192.585 39.4219 192.341 40.5625 192.341H151.256C153.202 192.346 155.081 193.056 156.543 194.34C158.006 195.625 158.953 197.396 159.208 199.325L166.531 255.555C166.678 256.686 166.582 257.835 166.25 258.926C165.917 260.017 165.356 261.025 164.603 261.882C163.851 262.739 162.924 263.425 161.885 263.896C160.846 264.366 159.719 264.609 158.578 264.609ZM40.5625 193.475C39.5831 193.475 38.6149 193.684 37.7226 194.088C36.8302 194.491 36.0343 195.081 35.3879 195.817C34.7416 196.553 34.2596 197.418 33.9743 198.355C33.6889 199.292 33.6067 200.279 33.7331 201.25L41.0546 257.479C41.2742 259.136 42.0875 260.657 43.3434 261.76C44.5993 262.862 46.2127 263.472 47.884 263.476H158.578C159.557 263.476 160.525 263.267 161.417 262.863C162.31 262.459 163.105 261.869 163.751 261.134C164.398 260.398 164.879 259.533 165.165 258.596C165.45 257.659 165.532 256.672 165.406 255.701L158.084 199.472C157.864 197.815 157.051 196.294 155.796 195.191C154.54 194.089 152.927 193.479 151.256 193.475H40.5625Z" fill="#292A2E"/>
<path d="M146.377 106.154C146.377 106.154 153.733 100.602 155.556 87.8223C156.967 77.9269 147.839 84.3379 147.839 84.3379C147.839 84.3379 148.786 77.2029 143.587 77.911C138.388 78.6191 135.48 86.1141 135.48 86.1141" fill="#0C0C0C"/>
<path d="M116.72 78.7484C116.72 78.7484 90.927 81.514 100.251 116.465L102.533 116.617L107.166 116.928" fill="#0C0C0C"/>
<path d="M142.057 152.961C141.943 152.947 140.685 173.825 116.428 172.007C99.6352 170.749 93.6472 152.932 93.2628 152.932C95.073 152.547 97.3108 151.963 98.1997 151.762C100.138 151.312 101.893 150.283 103.232 148.812C104.571 147.34 105.43 145.495 105.695 143.523C106.186 140.564 105.355 125.422 105.609 122.428L131.386 128.186C131.026 134.51 128.505 149.172 137.339 151.767C138.811 152.193 140.394 152.588 142.057 152.961Z" fill="#E98862"/>
<path opacity="0.52" d="M131.747 145.772C131.344 144.471 131.084 143.129 130.972 141.772C130.69 138.673 130.747 135.553 131.143 132.466C125.903 131.759 120.968 129.597 116.896 126.225C116.417 127.993 113.784 135.716 114.515 137.396C115.889 140.572 122.363 145.772 131.747 145.772Z" fill="#0C0C0C"/>
<path d="M126.428 141.639C116.259 140.728 104.087 134.302 103.912 120.498L103.751 108.042C103.575 94.2379 110.683 82.9551 123.68 82.7902C136.678 82.6246 146.535 93.6919 146.711 107.496L146.781 113.011C146.772 114.904 146.634 116.795 146.368 118.67C145.701 123.63 144.667 131.173 141.3 136.275C138.123 141.092 132.924 142.222 126.428 141.639Z" fill="#E98862"/>
<path d="M131.145 129.022C133.244 129.117 135.336 128.717 137.252 127.855C137.292 127.838 137.327 127.814 137.358 127.783C137.388 127.752 137.411 127.716 137.427 127.676C137.444 127.636 137.452 127.593 137.451 127.55C137.451 127.507 137.442 127.465 137.425 127.425C137.408 127.385 137.383 127.35 137.353 127.319C137.322 127.289 137.285 127.266 137.245 127.249C137.206 127.233 137.163 127.225 137.12 127.226C137.077 127.226 137.034 127.235 136.995 127.252C132.867 129.01 129.119 128.755 126.156 126.507C126.096 126.46 126.034 126.415 125.97 126.374C125.895 126.339 125.81 126.334 125.732 126.358C125.653 126.383 125.587 126.436 125.546 126.508C125.504 126.579 125.492 126.663 125.51 126.744C125.528 126.824 125.575 126.895 125.643 126.941C125.667 126.957 125.706 126.987 125.757 127.028C127.314 128.214 129.191 128.909 131.145 129.022Z" fill="#0C0C0C"/>
<path d="M131.048 132.132C131.427 132.155 131.808 132.146 132.185 132.105C132.27 132.093 132.347 132.049 132.4 131.982C132.452 131.915 132.477 131.829 132.468 131.744C132.459 131.659 132.417 131.581 132.351 131.527C132.285 131.472 132.201 131.445 132.115 131.452C129.844 131.694 128.76 130.653 128.714 130.608C128.652 130.55 128.569 130.517 128.484 130.518C128.398 130.519 128.317 130.554 128.256 130.614C128.196 130.674 128.161 130.756 128.16 130.841C128.158 130.927 128.19 131.009 128.249 131.072C129.031 131.738 130.02 132.112 131.048 132.132Z" fill="#0C0C0C"/>
<path d="M142.42 115.665C143.304 115.665 144.021 114.948 144.021 114.064C144.021 113.18 143.304 112.463 142.42 112.463C141.536 112.463 140.819 113.18 140.819 114.064C140.819 114.948 141.536 115.665 142.42 115.665Z" fill="#0C0C0C"/>
<path d="M126.779 114.683C127.663 114.683 128.38 113.966 128.38 113.082C128.38 112.198 127.663 111.481 126.779 111.481C125.895 111.481 125.178 112.198 125.178 113.082C125.178 113.966 125.895 114.683 126.779 114.683Z" fill="#0C0C0C"/>
<path d="M104.771 124.693C100.822 124.743 97.5659 120.558 97.5143 116.609C97.4627 112.66 100.639 110.44 104.589 110.39L106.657 113.01L108.166 124.65L104.771 124.693Z" fill="#E98862"/>
<path d="M108.701 118.346C108.701 118.346 110.035 98.8131 115.958 97.6072C119.903 96.8038 129.469 102.399 138.33 100.71C142.206 99.9725 145.886 100.929 146.26 102.761C146.409 103.486 148.823 93.066 142.753 85.16C137.92 78.8669 122.104 77.0867 114.908 79.1503C94.9835 84.8657 103.776 111.249 103.776 111.249L104.664 117.983L108.701 118.346Z" fill="#0C0C0C"/>
<path d="M133.533 124.412H133.558C134.831 124.399 136.965 124.236 136.957 123.284C136.948 122.495 134.702 114 134.446 113.034C134.424 112.951 134.37 112.88 134.296 112.836C134.221 112.793 134.133 112.781 134.05 112.803C133.966 112.825 133.895 112.879 133.852 112.954C133.809 113.028 133.797 113.117 133.819 113.2C134.817 116.962 136.302 122.754 136.308 123.291C136.185 123.518 134.87 123.751 133.553 123.765C133.468 123.765 133.387 123.798 133.327 123.856C133.266 123.915 133.231 123.995 133.228 124.08C133.226 124.164 133.256 124.246 133.313 124.308C133.37 124.37 133.449 124.408 133.533 124.413V124.412Z" fill="#0C0C0C"/>
<path d="M137.876 105.383C139.214 105.015 140.626 105.015 141.964 105.383C142.621 105.56 143.248 105.834 143.823 106.197C144.392 106.553 144.914 106.978 145.376 107.465C145.461 107.551 145.51 107.667 145.512 107.789C145.514 107.911 145.468 108.028 145.386 108.117C145.303 108.206 145.189 108.26 145.068 108.267C144.947 108.275 144.827 108.235 144.734 108.156L144.706 108.131C144.278 107.735 143.802 107.395 143.289 107.117C142.785 106.842 142.243 106.644 141.68 106.53C140.573 106.298 139.423 106.362 138.348 106.716L138.304 106.732C138.216 106.763 138.123 106.777 138.03 106.772C137.937 106.767 137.846 106.744 137.762 106.704C137.677 106.663 137.602 106.607 137.54 106.538C137.478 106.469 137.43 106.388 137.398 106.3C137.367 106.212 137.354 106.119 137.359 106.026C137.364 105.933 137.387 105.842 137.427 105.758C137.467 105.674 137.524 105.598 137.593 105.536C137.662 105.474 137.743 105.426 137.831 105.395C137.846 105.391 137.862 105.387 137.876 105.383Z" fill="#0C0C0C"/>
<path d="M128.404 106.188C127.386 105.694 126.255 105.477 125.126 105.56C124.553 105.597 123.99 105.721 123.454 105.927C122.909 106.134 122.393 106.408 121.916 106.744L121.885 106.764C121.783 106.833 121.658 106.859 121.537 106.837C121.415 106.815 121.307 106.746 121.236 106.646C121.165 106.545 121.136 106.42 121.155 106.299C121.175 106.177 121.241 106.067 121.341 105.994C121.864 105.573 122.438 105.221 123.049 104.944C123.668 104.661 124.326 104.473 125 104.385C126.375 104.198 127.775 104.386 129.052 104.928C129.225 105.003 129.361 105.144 129.43 105.32C129.499 105.495 129.495 105.691 129.42 105.864C129.345 106.036 129.204 106.172 129.029 106.242C128.853 106.311 128.658 106.307 128.485 106.232C128.471 106.226 128.458 106.22 128.445 106.213L128.404 106.188Z" fill="#0C0C0C"/>
<path d="M135.972 91.9356C138.896 91.3248 140.537 87.3412 139.638 83.038C138.739 78.7348 135.64 75.7415 132.716 76.3524C129.793 76.9632 128.152 80.9468 129.051 85.25C129.95 89.5532 133.049 92.5465 135.972 91.9356Z" fill="#0C0C0C"/>
<path d="M299.033 483.271C299.033 483.271 302.073 499.029 316.827 499.907C331.58 500.785 328.381 512.538 328.381 512.538H272.001V484.37L299.033 483.271Z" fill="#367CFF"/>
<path d="M191.775 473.322C191.775 473.322 187.545 488.803 200.398 496.104C213.25 503.404 205.19 512.538 205.19 512.538L154.6 487.649L167.034 462.374L191.775 473.322Z" fill="#367CFF"/>
<path d="M160.441 468.949L203.103 334.363H125.772C110.238 334.363 103.763 321.19 103.763 305.657C103.763 290.124 119.033 276.507 134.566 276.507H238.935C248.409 276.507 259.032 282.301 264.232 290.221C269.432 298.141 268.027 310.414 264.26 319.107L195.943 485.033" fill="#262626"/>
<path opacity="0.8" d="M160.441 468.949L203.103 334.363H125.772C110.238 334.363 103.763 321.19 103.763 305.657C103.763 290.124 119.033 276.507 134.566 276.507H238.935C248.409 276.507 259.032 282.301 264.232 290.221C269.432 298.141 268.027 310.414 264.26 319.107L195.943 485.033" fill="#0A0A0A"/>
<path d="M268.76 497.904L197.427 334.363L103.763 334.356C81.8156 332.636 71.7649 320.608 72.0841 305.078C72.3993 289.745 80.163 274.601 95.4274 274.601H221.667C232.961 274.833 241.846 287.314 246.036 297.803L305.338 487.892" fill="#262626"/>
<path d="M65.6946 274.789C65.6946 274.789 61.5349 301.915 68.1285 316.996C76.3599 335.824 107.218 334.357 107.218 334.357L105.479 274.601L65.6946 274.789Z" fill="#262626"/>
<path d="M248.718 274.255L182.556 260.545C179.799 259.974 177.23 258.717 175.088 256.889C172.946 255.062 171.299 252.725 170.3 250.092L144.277 181.518C143.497 179.463 143.13 177.274 143.196 175.076C143.262 172.879 143.76 170.716 144.662 168.711C145.564 166.706 146.852 164.898 148.452 163.39C150.053 161.883 151.935 160.706 153.99 159.926C156.046 159.146 158.235 158.778 160.432 158.844C162.63 158.91 164.793 159.408 166.798 160.31C168.803 161.212 170.611 162.5 172.118 164.101C173.625 165.701 174.802 167.583 175.582 169.639L198.346 229.621L255.513 241.467C255.513 241.467 249.866 274.492 248.718 274.255Z" fill="#367CFF"/>
<path d="M172.195 198.932C171.431 207.908 166.015 263.91 165.278 274.966H65.7377C65.1656 264.994 63.3089 222.656 61.1403 203.156C59.0699 184.549 58.3192 173.93 60.7038 168.147C64.9094 157.948 75.4335 154.278 84.4984 153.051C90.034 152.301 98.3596 151.764 98.3596 151.764C98.3596 151.764 99.0643 166.024 115.873 166.818C138.755 167.895 137.227 151.764 137.34 151.764C141.047 151.764 161.225 154.46 166.27 157.749C173.396 162.393 175.502 168.723 175.585 174.538C175.681 181.234 173.063 188.752 172.195 198.932Z" fill="#367CFF"/>
<path d="M168.281 244.693C168.273 244.693 168.265 244.693 168.257 244.693C168.183 244.687 168.113 244.651 168.065 244.594C168.016 244.536 167.992 244.462 167.998 244.387L170.583 213.344C170.585 213.307 170.594 213.27 170.611 213.237C170.628 213.203 170.651 213.173 170.68 213.149C170.709 213.125 170.742 213.107 170.778 213.096C170.814 213.085 170.851 213.082 170.889 213.086C170.963 213.092 171.033 213.128 171.081 213.185C171.13 213.242 171.153 213.316 171.147 213.391L168.564 244.434C168.557 244.505 168.525 244.57 168.473 244.618C168.42 244.666 168.352 244.693 168.281 244.693Z" fill="#0C0C0C"/>
<path d="M215.691 263.322L237.533 196.183C237.917 195.003 238.664 193.975 239.668 193.246C240.672 192.517 241.881 192.124 243.121 192.124H332.104C333.032 192.124 333.946 192.344 334.772 192.765C335.599 193.186 336.314 193.797 336.859 194.547C337.404 195.298 337.764 196.167 337.908 197.083C338.053 197.999 337.979 198.937 337.692 199.819L315.851 266.958C315.467 268.137 314.72 269.166 313.716 269.895C312.712 270.624 311.503 271.016 310.263 271.016H221.278C220.351 271.016 219.437 270.796 218.61 270.375C217.784 269.954 217.069 269.343 216.525 268.592C215.98 267.842 215.62 266.973 215.475 266.057C215.331 265.141 215.405 264.204 215.691 263.322Z" fill="#292A2E"/>
<path d="M215.691 263.322L237.533 196.183C237.917 195.003 238.664 193.975 239.668 193.246C240.672 192.517 241.881 192.124 243.121 192.124H332.104C333.032 192.124 333.946 192.344 334.772 192.765C335.599 193.186 336.314 193.797 336.859 194.547C337.404 195.298 337.764 196.167 337.908 197.083C338.053 197.999 337.979 198.937 337.692 199.819L315.851 266.958C315.467 268.137 314.72 269.166 313.716 269.895C312.712 270.624 311.503 271.016 310.263 271.016H221.278C220.351 271.016 219.437 270.796 218.61 270.375C217.784 269.954 217.069 269.343 216.525 268.592C215.98 267.842 215.62 266.973 215.475 266.057C215.331 265.141 215.405 264.204 215.691 263.322Z" fill="#292A2E"/>
<path d="M233.509 265.573H173.943C172.459 265.573 171.256 266.776 171.256 268.26V268.329C171.256 269.813 172.459 271.016 173.943 271.016H233.509C234.993 271.016 236.196 269.813 236.196 268.329V268.26C236.196 266.776 234.993 265.573 233.509 265.573Z" fill="#292A2E"/>
<path d="M233.509 265.573H173.943C172.459 265.573 171.256 266.776 171.256 268.26V268.329C171.256 269.813 172.459 271.016 173.943 271.016H233.509C234.993 271.016 236.196 269.813 236.196 268.329V268.26C236.196 266.776 234.993 265.573 233.509 265.573Z" fill="#292A2E"/>
<path d="M276.692 244.178C281.846 244.178 286.024 240 286.024 234.845C286.024 229.691 281.846 225.513 276.692 225.513C271.537 225.513 267.359 229.691 267.359 234.845C267.359 240 271.537 244.178 276.692 244.178Z" fill="white"/>
<path d="M210.713 247.594L195.847 242.384L197.981 242.236C198.669 242.175 199.308 241.855 199.769 241.34C200.23 240.826 200.478 240.156 200.464 239.465C200.444 239.109 200.352 238.761 200.193 238.442C200.034 238.122 199.812 237.839 199.54 237.608C199.268 237.378 198.952 237.205 198.611 237.1C198.27 236.996 197.911 236.962 197.557 237.001L171.256 239.795L171.936 248.247C172.149 250.873 173.14 253.374 174.783 255.433C176.427 257.491 178.647 259.011 181.161 259.799L192.55 263.347C193.138 263.542 193.776 263.529 194.355 263.308C194.935 263.088 195.42 262.674 195.73 262.137C195.999 261.646 196.104 261.082 196.03 260.527C195.956 259.972 195.706 259.456 195.318 259.053C195.343 259.035 195.364 259.012 195.38 258.986C195.396 258.959 195.406 258.93 195.411 258.899C195.415 258.869 195.413 258.838 195.405 258.808C195.397 258.778 195.382 258.75 195.363 258.726L197.461 259.384C198.116 259.604 198.829 259.567 199.458 259.281C200.087 258.995 200.583 258.481 200.847 257.842C201.063 257.263 201.067 256.627 200.86 256.045C200.652 255.463 200.246 254.973 199.713 254.661C199.738 254.647 199.76 254.63 199.778 254.609L200.641 254.88C201.229 255.075 201.867 255.062 202.446 254.841C203.026 254.621 203.511 254.207 203.821 253.67C204.147 253.074 204.23 252.375 204.053 251.719C203.875 251.063 203.45 250.501 202.868 250.152C202.872 250.134 202.875 250.117 202.876 250.098L209.067 252.269C209.686 252.486 210.367 252.448 210.959 252.163C211.551 251.879 212.006 251.371 212.223 250.751C212.44 250.131 212.402 249.45 212.118 248.858C211.833 248.266 211.325 247.812 210.705 247.594H210.713Z" fill="#E98862"/>
<path opacity="0.2" d="M202.64 250.341C202.612 250.341 202.583 250.336 202.556 250.326L196.567 248.151C196.506 248.128 196.456 248.082 196.428 248.023C196.401 247.964 196.398 247.896 196.421 247.834C196.443 247.773 196.489 247.723 196.549 247.696C196.608 247.668 196.676 247.665 196.737 247.688L202.725 249.865C202.78 249.885 202.826 249.923 202.855 249.973C202.884 250.023 202.894 250.082 202.884 250.139C202.874 250.197 202.844 250.248 202.8 250.286C202.756 250.323 202.699 250.343 202.641 250.343L202.64 250.341Z" fill="#0A0A0A"/>
<path opacity="0.2" d="M199.613 254.695C199.585 254.695 199.557 254.69 199.531 254.68L194.81 253.006C194.78 252.995 194.752 252.978 194.728 252.956C194.704 252.935 194.684 252.909 194.67 252.879C194.656 252.85 194.648 252.818 194.646 252.786C194.645 252.754 194.649 252.721 194.66 252.691C194.671 252.66 194.688 252.632 194.71 252.608C194.731 252.584 194.757 252.564 194.787 252.551C194.816 252.537 194.848 252.529 194.88 252.527C194.912 252.525 194.945 252.53 194.975 252.541L199.696 254.216C199.75 254.235 199.797 254.273 199.826 254.323C199.855 254.374 199.866 254.433 199.856 254.49C199.846 254.547 199.816 254.599 199.772 254.637C199.727 254.674 199.671 254.695 199.613 254.695Z" fill="#0A0A0A"/>
<path opacity="0.2" d="M195.169 259.112C195.138 259.112 195.108 259.107 195.08 259.096L192.869 258.253C192.837 258.242 192.808 258.226 192.783 258.204C192.758 258.181 192.738 258.155 192.724 258.124C192.71 258.094 192.702 258.062 192.7 258.028C192.699 257.995 192.705 257.962 192.716 257.931C192.728 257.9 192.746 257.871 192.77 257.847C192.793 257.824 192.82 257.804 192.851 257.792C192.882 257.779 192.915 257.772 192.948 257.772C192.981 257.772 193.014 257.779 193.045 257.793L195.256 258.636C195.31 258.656 195.354 258.695 195.383 258.745C195.411 258.795 195.42 258.854 195.41 258.91C195.399 258.967 195.37 259.018 195.325 259.055C195.281 259.092 195.226 259.112 195.168 259.112H195.169Z" fill="#0A0A0A"/>
<path d="M182.896 234.794L120.532 234.752L96.94 177.2L61.7453 191.997L91.1815 260.302L91.4695 260.982C92.9096 264.302 95.3353 267.099 98.4182 268.995C101.501 270.891 105.092 271.793 108.705 271.579L183.84 267.14L182.896 234.794Z" fill="#367CFF"/>
<path d="M107.671 271.892C104.174 271.886 100.756 270.862 97.8323 268.944C94.9089 267.027 92.6075 264.299 91.2093 261.094L90.9207 260.414L65.8392 202.212L66.3596 201.988L91.7303 260.871C93.1541 264.132 95.5424 266.88 98.574 268.743C101.606 270.607 105.135 271.498 108.688 271.296L183.549 266.874L182.622 235.078L120.343 235.037L102.201 190.785L102.726 190.57L120.723 234.47L183.171 234.512L184.131 267.408L183.856 267.424L108.72 271.863C108.37 271.883 108.02 271.892 107.671 271.892Z" fill="#0C0C0C"/>
<path d="M482.468 276.449L481.339 276.563L505.24 513.176L506.368 513.062L482.468 276.449Z" fill="#494949"/>
<path d="M38.3039 276.452L14.3865 513.064L15.5147 513.178L39.432 276.566L38.3039 276.452Z" fill="#494949"/>
<path d="M137.121 276.452L113.204 513.063L114.332 513.178L138.249 276.566L137.121 276.452Z" fill="#494949"/>
<path d="M581.285 276.449L580.157 276.563L604.057 513.176L605.186 513.062L581.285 276.449Z" fill="#494949"/>
<path d="M602.838 271.862H18.3174C15.7517 271.862 13.6719 273.942 13.6719 276.507C13.6719 279.073 15.7517 281.152 18.3174 281.152H602.838C605.403 281.152 607.483 279.073 607.483 276.507C607.483 273.942 605.403 271.862 602.838 271.862Z" fill="#292A2E"/>
<path opacity="0.8" d="M602.838 271.862H18.3174C15.7517 271.862 13.6719 273.942 13.6719 276.507C13.6719 279.073 15.7517 281.152 18.3174 281.152H602.838C605.403 281.152 607.483 279.073 607.483 276.507C607.483 273.942 605.403 271.862 602.838 271.862Z" fill="white"/>
<path d="M602.838 281.719H18.3197C17.6306 281.726 16.947 281.597 16.3083 281.338C15.6696 281.079 15.0886 280.697 14.5988 280.212C14.109 279.727 13.7202 279.15 13.4548 278.514C13.1895 277.878 13.0528 277.196 13.0528 276.507C13.0528 275.818 13.1895 275.136 13.4548 274.5C13.7202 273.864 14.109 273.287 14.5988 272.802C15.0886 272.317 15.6696 271.935 16.3083 271.676C16.947 271.417 17.6306 271.288 18.3197 271.295H602.838C604.211 271.309 605.523 271.865 606.489 272.841C607.455 273.816 607.996 275.134 607.996 276.507C607.996 277.88 607.455 279.198 606.489 280.174C605.523 281.149 604.211 281.705 602.838 281.719ZM18.3197 272.429C17.78 272.422 17.2445 272.523 16.7441 272.725C16.2438 272.927 15.7885 273.227 15.4046 273.606C15.0208 273.985 14.7161 274.437 14.5081 274.935C14.3001 275.433 14.193 275.967 14.193 276.507C14.193 277.047 14.3001 277.581 14.5081 278.079C14.7161 278.577 15.0208 279.029 15.4046 279.408C15.7885 279.787 16.2438 280.087 16.7441 280.289C17.2445 280.491 17.78 280.592 18.3197 280.585H602.838C603.912 280.573 604.937 280.137 605.691 279.374C606.446 278.611 606.869 277.58 606.869 276.507C606.869 275.434 606.446 274.404 605.691 273.64C604.937 272.877 603.912 272.441 602.838 272.429H18.3197Z" fill="#292A2E"/>
<path d="M602.838 271.862H120.912C118.346 271.862 116.267 273.942 116.267 276.507C116.267 279.073 118.346 281.152 120.912 281.152H602.838C605.403 281.152 607.483 279.073 607.483 276.507C607.483 273.942 605.403 271.862 602.838 271.862Z" fill="white"/>
<path d="M602.838 281.719H120.911C119.539 281.705 118.227 281.149 117.261 280.173C116.295 279.198 115.753 277.88 115.753 276.507C115.753 275.134 116.295 273.816 117.261 272.84C118.227 271.865 119.539 271.309 120.911 271.295H602.838C604.211 271.309 605.523 271.865 606.489 272.84C607.455 273.816 607.996 275.134 607.996 276.507C607.996 277.88 607.455 279.198 606.489 280.173C605.523 281.149 604.211 281.705 602.838 281.719ZM120.911 272.429C119.838 272.441 118.813 272.877 118.059 273.64C117.304 274.404 116.881 275.434 116.881 276.507C116.881 277.58 117.304 278.61 118.059 279.374C118.813 280.137 119.838 280.573 120.911 280.585H602.838C603.911 280.573 604.937 280.137 605.691 279.374C606.446 278.61 606.869 277.58 606.869 276.507C606.869 275.434 606.446 274.404 605.691 273.64C604.937 272.877 603.911 272.441 602.838 272.429H120.911Z" fill="#292A2E"/>
</svg>
