<svg width="224" height="73" viewBox="0 0 224 73" fill="none" xmlns="http://www.w3.org/2000/svg">
<path d="M18.4791 23.2147L18.6711 31.4156C18.7028 32.7694 18.7942 33.6138 18.9453 33.9489C19.1094 34.2837 19.4093 34.5763 19.845 34.8265C20.2933 35.0635 20.8885 35.1733 21.6305 35.1559L22.5092 35.1354L22.5261 35.8578L8.68223 36.1819L8.66531 35.4595L9.54398 35.4389C10.312 35.4209 10.9271 35.2698 11.3893 34.9854C11.7235 34.7953 11.9766 34.4768 12.1484 34.0299C12.2843 33.7141 12.3367 32.8924 12.3056 31.5646L11.8978 14.1475C11.8661 12.7937 11.7747 11.9493 11.6236 11.6142C11.4725 11.2791 11.1728 10.993 10.7244 10.7561C10.2887 10.5058 9.6999 10.3893 8.95792 10.4067L8.07925 10.4273L8.06234 9.70482L21.9062 9.3807L21.9231 10.1032L21.0444 10.1237C20.2764 10.1417 19.6613 10.2929 19.1991 10.5772C18.8649 10.7674 18.6054 11.086 18.4205 11.5332C18.2846 11.849 18.2322 12.6707 18.2633 13.9985L18.4388 21.4964L27.7917 21.2775L27.6162 13.7795C27.5845 12.4257 27.4931 11.5813 27.342 11.2462C27.1909 10.9111 26.8911 10.625 26.4427 10.3881C25.9941 10.1381 25.3987 10.0218 24.6567 10.0392L23.7976 10.0593L23.7807 9.33681L37.605 9.01315L37.6219 9.73561L36.7628 9.75573C35.9818 9.77401 35.3666 9.92517 34.9174 10.2092C34.5833 10.3994 34.3237 10.718 34.1388 11.1652C34.0029 11.481 33.9505 12.3027 33.9816 13.6305L34.3894 31.0476C34.4211 32.4014 34.5125 33.2458 34.6636 33.5809C34.8147 33.916 35.1146 34.2086 35.5633 34.4585C36.0117 34.6955 36.6069 34.8053 37.3489 34.7879L38.208 34.7678L38.2249 35.4903L24.4006 35.8139L24.3837 35.0915L25.2428 35.0714C26.0238 35.0531 26.639 34.9019 27.0882 34.6179C27.4223 34.4277 27.6819 34.1091 27.8668 33.6619C28.0027 33.3461 28.0551 32.5244 28.024 31.1966L27.832 22.9957L18.4791 23.2147ZM44.073 8.23655C44.9191 8.21674 45.6421 8.49938 46.2419 9.08446C46.8414 9.65652 47.1509 10.3591 47.1704 11.1922C47.1899 12.0253 46.9071 12.7418 46.322 13.3416C45.7499 13.9411 45.0474 14.2505 44.2143 14.2701C43.3811 14.2896 42.6648 14.0133 42.0654 13.4412C41.4659 12.8692 41.1564 12.1666 41.1369 11.3335C41.1174 10.5004 41.3936 9.78406 41.9657 9.18457C42.5375 8.57206 43.2399 8.25606 44.073 8.23655ZM47.0137 17.0178L47.3525 31.4865C47.3826 32.7752 47.5517 33.5983 47.8596 33.9557C48.1672 34.3002 48.7577 34.4883 49.6311 34.5199L49.6476 35.2228L39.787 35.4537L39.7705 34.7508C40.577 34.7058 41.1703 34.4575 41.5505 34.0058C41.8038 33.7003 41.9154 32.9032 41.8852 31.6145L41.6356 20.9533C41.6054 19.6646 41.4365 18.848 41.1289 18.5036C40.821 18.1461 40.2368 17.9514 39.3765 17.9194L39.3596 17.197L47.0137 17.0178ZM58.5926 16.7467L58.6895 20.8862C59.8559 18.9703 60.8875 17.6958 61.7844 17.0627C62.681 16.4165 63.5524 16.0835 64.3985 16.0637C65.1274 16.0467 65.7121 16.2609 66.1523 16.7065C66.6052 17.1387 66.8413 17.7648 66.8605 18.5849C66.8809 19.4571 66.682 20.139 66.2637 20.6307C65.8584 21.1221 65.3564 21.3748 64.7576 21.3888C64.0677 21.405 63.4637 21.1977 62.9457 20.767C62.4276 20.3363 62.1224 20.096 62.0301 20.046C61.8981 19.971 61.7475 19.9354 61.5783 19.9394C61.2008 19.9482 60.8461 20.0998 60.5144 20.3941C59.9911 20.8492 59.6023 21.49 59.3481 22.3165C58.9611 23.5889 58.7855 24.9866 58.8211 26.5096L58.9194 30.7077L58.9646 31.8007C58.9819 32.5427 59.0386 33.0168 59.1346 33.2229C59.299 33.5707 59.5329 33.8257 59.8363 33.9879C60.1524 34.1368 60.6753 34.2223 61.4052 34.2442L61.4217 34.9472L51.5611 35.178L51.5446 34.4751C52.3372 34.3914 52.8659 34.1642 53.1307 33.7933C53.4082 33.4091 53.5284 32.4229 53.4912 30.8348L53.2549 20.7399C53.2305 19.6985 53.1629 19.0359 53.052 18.7519C52.9133 18.3905 52.7183 18.1281 52.467 17.9646C52.2158 17.8012 51.7769 17.6942 51.1506 17.6438L51.1337 16.9213L58.5926 16.7467ZM83.706 24.6376L73.6892 24.8721C73.8631 27.2906 74.5522 29.1891 75.7567 30.5675C76.6802 31.6269 77.7733 32.1418 79.0359 32.1123C79.817 32.094 80.5214 31.8626 81.1492 31.4181C81.7767 30.9605 82.4416 30.157 83.1441 29.0074L83.818 29.4215C82.8759 31.4623 81.816 32.9198 80.6382 33.794C79.4602 34.6551 78.0836 35.1041 76.5085 35.141C73.8009 35.2044 71.7263 34.211 70.2847 32.1608C69.1259 30.5078 68.5174 28.4382 68.4592 25.9519C68.3878 22.9058 69.1512 20.4654 70.7494 18.6306C72.3602 16.7825 74.2721 15.8326 76.485 15.7808C78.3335 15.7375 79.9524 16.4615 81.3419 17.9528C82.744 19.4308 83.5321 21.6591 83.706 24.6376ZM78.872 23.4418C78.8229 21.3461 78.6721 19.9104 78.4195 19.1348C78.1799 18.359 77.8146 17.7749 77.3235 17.3827C77.0447 17.1548 76.6774 17.0461 76.2218 17.0568C75.5449 17.0727 74.9995 17.4175 74.5855 18.0915C73.8446 19.268 73.4977 20.8651 73.545 22.8828L73.561 23.5662L78.872 23.4418ZM95.2064 7.66457L108.875 7.34457L108.891 8.06702L108.208 8.08302C107.18 8.1071 106.473 8.23436 106.088 8.46479C105.715 8.68191 105.448 8.9812 105.288 9.36266C105.141 9.74382 105.085 10.6894 105.12 12.1994L105.424 25.1646C105.479 27.5337 105.691 29.0982 106.061 29.858C106.443 30.6175 107.051 31.2415 107.883 31.7299C108.715 32.2184 109.755 32.448 111.005 32.4188C112.437 32.3852 113.647 32.0378 114.634 31.3765C115.634 30.7019 116.368 29.7925 116.836 28.6484C117.317 27.504 117.525 25.526 117.459 22.7142L117.207 11.9164C117.179 10.7319 117.035 9.88863 116.776 9.38674C116.517 8.88486 116.196 8.54071 115.814 8.35429C115.221 8.06861 114.391 7.93826 113.324 7.96325L113.307 7.24079L122.465 7.02639L122.481 7.74885L121.935 7.76165C121.193 7.77902 120.578 7.9432 120.09 8.25417C119.603 8.56515 119.255 9.02263 119.048 9.6266C118.888 10.0471 118.821 10.7976 118.847 11.878L119.082 21.9339C119.155 25.045 118.999 27.2953 118.615 28.6849C118.244 30.0742 117.278 31.3667 115.717 32.5624C114.156 33.7581 112.002 34.3882 109.255 34.4525C106.964 34.5061 105.187 34.2416 103.923 33.6591C102.198 32.8659 100.969 31.8267 100.235 30.5414C99.502 29.2561 99.1096 27.5135 99.0581 25.3136L98.7545 12.3484C98.7189 10.8254 98.6122 9.88364 98.4344 9.52312C98.2563 9.14958 97.9564 8.85704 97.5347 8.6455C97.113 8.43396 96.3425 8.3478 95.2233 8.38703L95.2064 7.66457ZM136.235 14.4209L136.674 20.6429L136.01 20.6584C135.173 18.8285 134.317 17.5852 133.442 16.9284C132.58 16.2713 131.726 15.9527 130.879 15.9725C130.346 15.985 129.894 16.1779 129.525 16.5512C129.156 16.9115 128.977 17.326 128.988 17.7946C128.996 18.1461 129.134 18.4815 129.402 18.8008C129.831 19.3248 131.018 20.2152 132.962 21.4722C134.906 22.7161 136.187 23.7866 136.808 24.6838C137.44 25.5677 137.77 26.5693 137.796 27.6888C137.82 28.7042 137.589 29.7059 137.105 30.6941C136.62 31.6823 135.921 32.4476 135.009 32.9899C134.097 33.5322 133.082 33.8165 131.962 33.8427C131.09 33.8631 129.918 33.617 128.448 33.1044C128.054 32.9704 127.785 32.905 127.642 32.9084C127.213 32.9184 126.862 33.2523 126.591 33.9098L125.947 33.9249L125.481 27.3715L126.145 27.356C126.771 29.0605 127.601 30.3305 128.637 31.1659C129.685 32.0009 130.665 32.4078 131.576 32.3865C132.201 32.3718 132.704 32.1712 133.086 31.7846C133.48 31.3846 133.671 30.9113 133.658 30.3645C133.644 29.7397 133.436 29.2041 133.035 28.7576C132.634 28.3111 131.745 27.6416 130.37 26.7491C128.346 25.4159 127.032 24.3917 126.43 23.6764C125.545 22.6291 125.088 21.4611 125.058 20.1724C125.025 18.7665 125.477 17.4861 126.414 16.331C127.363 15.1627 128.756 14.557 130.591 14.514C131.581 14.4908 132.543 14.7093 133.479 15.1693C133.835 15.3563 134.123 15.4472 134.344 15.442C134.579 15.4366 134.766 15.3866 134.908 15.2921C135.048 15.1846 135.27 14.8994 135.571 14.4365L136.235 14.4209ZM146.275 24.3449L145.416 24.365C145.29 22.8832 144.948 21.0938 144.391 18.9969L143.276 14.764C142.605 12.227 142.256 10.4052 142.23 9.29876C142.207 8.29643 142.487 7.48235 143.072 6.85651C143.656 6.23068 144.43 5.90649 145.393 5.88394C146.331 5.862 147.112 6.15628 147.739 6.76678C148.378 7.36397 148.709 8.13769 148.731 9.08795C148.754 10.0773 148.472 11.9333 147.885 14.6562L146.949 18.937C146.62 20.4556 146.395 22.2582 146.275 24.3449ZM145.93 27.1467C146.802 27.1263 147.552 27.4214 148.178 28.0319C148.817 28.629 149.147 29.3702 149.168 30.2554C149.188 31.1276 148.893 31.8834 148.283 32.5228C147.686 33.149 146.951 33.4722 146.079 33.4926C145.207 33.5131 144.451 33.2247 143.812 32.6275C143.185 32.017 142.862 31.2757 142.842 30.4035C142.821 29.5314 143.11 28.7757 143.707 28.1365C144.304 27.4974 145.045 27.1675 145.93 27.1467ZM159.592 24.0332L158.732 24.0533C158.607 22.5714 158.265 20.7821 157.708 18.6851L156.593 14.4523C155.922 11.9152 155.573 10.0934 155.547 8.98698C155.523 7.98465 155.804 7.17057 156.388 6.54474C156.973 5.91891 157.747 5.59472 158.71 5.57217C159.647 5.55022 160.429 5.8445 161.056 6.45501C161.695 7.05219 162.025 7.82591 162.048 8.77617C162.071 9.76549 161.789 11.6216 161.201 14.3444L160.266 18.6253C159.937 20.1438 159.712 21.9464 159.592 24.0332ZM159.247 26.835C160.119 26.8145 160.868 27.1096 161.495 27.7201C162.134 28.3173 162.464 29.0584 162.485 29.9436C162.505 30.8158 162.21 31.5716 161.6 32.211C161.002 32.8372 160.268 33.1605 159.395 33.1809C158.523 33.2013 157.768 32.9129 157.128 32.3157C156.502 31.7052 156.179 30.9639 156.158 30.0917C156.138 29.2196 156.426 28.4639 157.023 27.8248C157.621 27.1856 158.362 26.8557 159.247 26.835Z" fill="#212529"/>
<path d="M1.78436 70.0143C120.09 30.4344 158.846 42.3305 163.436 53.2261" stroke="#212529" stroke-width="5"/>
</svg>
